# xmcd
#
# Track frame offsets:
#	182
#	19137
#	38522
#	56252
#	74427
#	93122
#	109625
#	126237
#	144562
#	165617
#	188237
#	211350
#	230217
#	252142
#	273127
#	292270
#	297690
#	316315
#
# Disc length: 4423 seconds
#
# Revision: 3
# Processed by: cddbd v1.5.2PL0 Copyright (c) Steve Scherf et al.
# Submitted via: EZCDAudioConverter 7.0.0.1
#
DISCID=10114512
DTITLE=寶麗金 - 寶麗金 最流行
DYEAR=1994
DGENRE=Pop
TTITLE0=等你等到我心痛
TTITLE1=情憑誰來定錯對
TTITLE2=戀曲 Sha-La-La
TTITLE3=不可推搪
TTITLE4=一秒轉機
TTITLE5=愛你這樣傻
TTITLE6=寒冰
TTITLE7=心愛
TTITLE8=無盡的愛
TTITLE9=緣份的天空 (西雅圖的失眠人)
TTITLE10=祗想一生跟你走
TTITLE11=不可思議
TTITLE12=全因身邊有你
TTITLE13=夢幻的笑容
TTITLE14=痴心換情深
TTITLE15=夢見你
TTITLE16=假的戀愛
TTITLE17=飛出戀愛街
EXTD=
EXTT0=
EXTT1=
EXTT2=
EXTT3=
EXTT4=
EXTT5=
EXTT6=
EXTT7=
EXTT8=
EXTT9=
EXTT10=
EXTT11=
EXTT12=
EXTT13=
EXTT14=
EXTT15=
EXTT16=
EXTT17=
PLAYORDER=
